<svg xmlns="http://www.w3.org/2000/svg" width="2000" height="2250" viewBox="0 0 2000 2250" version="1.1"><path d="M 916.500 155.631 C 811.317 162.032, 723.151 179.290, 632 211.320 C 573.065 232.030, 507.865 263.155, 456.561 295.072 C 444.621 302.500, 444.621 302.500, 444.561 306.456 C 444.500 310.413, 444.500 310.413, 420.500 326.458 C 360.833 366.349, 314.643 404.238, 264.467 454.448 C 217.542 501.405, 187.472 537.879, 153.123 589.500 C 100.753 668.205, 59.065 756.628, 35.024 840 C 27.570 865.849, 23.557 883.797, 28.084 871.039 C 30.205 865.061, 31.326 863.466, 32.776 864.362 C 33.338 864.709, 32.146 871.617, 29.867 881.225 C 14.184 947.337, 4.932 1008.837, 1.016 1073 C -0.282 1094.279, -0.280 1150.783, 1.021 1172 C 6.811 1266.460, 28.843 1357.417, 65.522 1438.289 C 72.303 1453.239, 74.684 1454.228, 71.084 1440.600 C 68.468 1430.699, 68.599 1427.628, 71.654 1427.193 C 73.372 1426.948, 74.058 1427.656, 75.046 1430.693 C 78.519 1441.371, 90.404 1469.094, 100.470 1490 C 106.694 1502.925, 113.916 1518.450, 116.519 1524.500 C 131.530 1559.389, 145.740 1582.003, 157.578 1589.844 C 160.199 1591.580, 162.682 1593, 163.096 1593 C 163.511 1593, 159.889 1584.788, 155.048 1574.750 C 104.850 1470.668, 71.528 1360.717, 60.567 1263 C 58.594 1245.413, 56.974 1224.908, 57.099 1219.105 C 57.198 1214.500, 57.198 1214.500, 58.516 1218.682 C 59.240 1220.981, 61.019 1229.756, 62.469 1238.182 C 66.308 1260.493, 68.623 1269.512, 72.261 1276.339 C 75.451 1282.323, 75.505 1282.367, 76.130 1279.454 C 77.327 1273.871, 76.998 1234.792, 75.403 1193.175 C 72.689 1122.365, 74.158 1075.025, 80.047 1043.500 C 82.092 1032.553, 87.036 1012.702, 87.581 1013.248 C 87.739 1013.406, 87.240 1018.027, 86.473 1023.517 C 78.730 1078.926, 78.583 1149.397, 86.084 1210 C 92.128 1258.832, 103.215 1309.590, 111.495 1326.339 C 114.325 1332.064, 114.699 1333.566, 113.791 1335.559 C 112.977 1337.346, 113.023 1338.323, 113.975 1339.470 C 115.758 1341.618, 117.669 1341.372, 118.312 1338.913 C 119.861 1332.990, 122.454 1338.014, 145.447 1391.500 C 177.864 1466.904, 181.258 1474.180, 196.755 1501.500 C 219.812 1542.146, 244.837 1575.394, 283.101 1616.215 C 290.172 1623.758, 296.881 1631.896, 298.011 1634.300 C 299.141 1636.703, 302.993 1642.232, 306.571 1646.585 C 310.149 1650.938, 315.097 1657.154, 317.566 1660.398 C 322.057 1666.297, 322.057 1666.297, 321.454 1673.398 C 320.852 1680.500, 320.852 1680.500, 328.545 1694 C 360.360 1749.828, 404.795 1803.755, 452.500 1844.432 C 456.900 1848.184, 465.450 1856.608, 471.500 1863.153 C 543.503 1941.045, 667.761 2011.877, 805.264 2053.410 C 857.435 2069.169, 883.197 2074.286, 954 2082.956 C 984.612 2086.705, 998.666 2088.832, 1017.500 2092.567 C 1028.517 2094.751, 1071.095 2095.604, 1092.295 2094.065 C 1112.220 2092.618, 1148.662 2088.055, 1172.022 2084.082 C 1239.483 2072.607, 1254.933 2069.560, 1286.500 2061.509 C 1386.255 2036.066, 1484.837 1991.462, 1574.982 1930.984 C 1698.911 1847.840, 1800.882 1738.977, 1873.177 1612.633 C 1887.135 1588.239, 1912.356 1537.343, 1923.292 1511.500 C 1954.619 1437.472, 1976.608 1359.365, 1988.889 1278.500 C 1993.443 1248.513, 1996.174 1222.458, 1999.163 1180.500 C 2000.681 1159.182, 2001.377 1080.979, 2000.030 1083 C 1999.319 1084.067, 1999.026 1082.336, 1999.015 1077 C 1998.995 1067.052, 1996.464 1034.878, 1993.943 1012.500 C 1982.570 911.578, 1956.444 815.047, 1916.426 726.092 C 1908.906 709.377, 1908.623 708.924, 1906.054 709.488 C 1904.098 709.918, 1902.867 709.476, 1901.308 707.784 C 1900.151 706.528, 1894.377 695.825, 1888.477 684 C 1850.099 607.081, 1802.948 536.621, 1746.943 472.500 C 1732.050 455.448, 1684.289 407.633, 1666.327 391.792 C 1598.882 332.309, 1516.381 279.247, 1436.500 243.977 C 1412.228 233.260, 1387.625 223.756, 1391.978 226.779 C 1396.442 229.879, 1398.272 232.128, 1397.200 233.200 C 1396.534 233.866, 1387.910 231.193, 1371.350 225.189 C 1292.646 196.654, 1213.730 177.526, 1137.500 168.508 C 1125.400 167.077, 1111.067 165.245, 1105.649 164.437 C 1091.584 162.339, 1064.510 159.309, 1043 157.424 C 1029.666 156.256, 1010.259 155.728, 973.500 155.534 C 945.450 155.387, 919.800 155.430, 916.500 155.631 M 1041.200 383.200 C 1039.386 385.014, 1039.751 385.996, 1042.250 386.033 C 1043.487 386.051, 1046.975 386.923, 1050 387.970 C 1053.025 389.018, 1055.876 389.505, 1056.335 389.053 C 1057.502 387.903, 1054.270 382, 1052.474 382 C 1051.663 382, 1051 382.466, 1051 383.035 C 1051 383.749, 1050.399 383.749, 1049.066 383.035 C 1046.470 381.646, 1042.674 381.726, 1041.200 383.200 M 996.772 386.903 C 994.261 388.076, 993.374 388.974, 994.055 389.655 C 997.244 392.844, 990.169 396.851, 979.813 397.719 C 972.684 398.317, 972.684 398.317, 973.350 395.908 C 975.355 388.655, 975.597 389.204, 970.334 389.053 C 956.088 388.643, 953.444 388.422, 952.844 387.594 C 952.462 387.064, 950.277 387.223, 947.594 387.974 C 943.343 389.164, 943 389.502, 943 392.506 C 943 395.753, 943 395.753, 933.750 396.860 C 928.663 397.469, 917.975 398.453, 910 399.046 C 902.025 399.639, 893.700 400.536, 891.500 401.038 C 889.300 401.540, 886.114 401.962, 884.419 401.976 C 882.145 401.994, 880.976 402.676, 879.959 404.577 C 877.799 408.612, 874.979 409.692, 872.996 407.243 C 871.715 405.661, 870.957 405.445, 869.518 406.250 C 867.947 407.129, 867.792 407.003, 868.453 405.390 C 868.879 404.350, 869.453 402.712, 869.730 401.750 C 870.594 398.746, 866.189 399.682, 861.804 403.436 C 853.575 410.480, 840.450 413.925, 812.500 416.378 C 796.957 417.742, 795.972 417.968, 778 424.289 C 743.781 436.324, 723.485 444.208, 697.173 455.686 C 685.525 460.767, 679.515 462.915, 678.837 462.237 C 678.159 461.559, 676.545 461.732, 673.914 462.766 C 669.973 464.314, 669.156 465.360, 671 466.500 C 672.856 467.647, 672.017 470.609, 669.023 473.478 C 667.386 475.046, 665.567 477.783, 664.980 479.559 C 664.335 481.515, 663.044 483.023, 661.707 483.381 C 657.696 484.456, 648.991 484.023, 645.527 482.576 C 640.896 480.641, 639.424 482.256, 640.912 487.642 C 641.727 490.595, 641.643 491.895, 640.528 493.597 C 638.424 496.808, 633.013 499.819, 627.954 500.593 C 625.504 500.968, 622.712 501.678, 621.750 502.172 C 616.569 504.831, 623.548 491.528, 630.822 484.879 C 635.724 480.400, 636.022 479.938, 633.001 481.499 C 631.077 482.494, 625.677 486.235, 621.001 489.811 C 613.250 495.740, 604.294 500.713, 598.099 502.528 C 596.044 503.129, 595.801 502.962, 596.413 501.367 C 597.208 499.295, 597.067 499.410, 584 511.548 C 579.875 515.380, 574.598 519.861, 572.273 521.507 C 569.948 523.153, 568.184 524.950, 568.352 525.500 C 568.853 527.137, 573.268 528.969, 576.750 528.985 C 579.342 528.997, 580 529.410, 580 531.025 C 580 533.656, 577.598 534.516, 563.196 537.046 C 550.224 539.325, 543.196 542.078, 537.380 547.161 C 530.400 553.262, 530 553.491, 530 551.393 C 530 550.374, 533.835 545.849, 538.523 541.338 C 545.700 534.430, 551.113 526.780, 549.773 525.439 C 548.850 524.516, 530.216 539.597, 520.139 549.423 C 505.925 563.282, 498.138 572.336, 474.492 602.500 C 455.192 627.119, 437.611 648.255, 432.144 653.409 C 428.210 657.119, 427.517 655.710, 428.945 646.906 C 430.207 639.132, 430.319 629, 429.144 629 C 427.853 629, 405.475 655.623, 393.421 671.500 C 381.262 687.514, 363.648 713.739, 352.786 732 C 297.056 825.694, 262.254 933.753, 246.506 1062 C 245.122 1073.275, 243.735 1084.439, 243.424 1086.810 C 243.074 1089.486, 242.412 1090.973, 241.680 1090.733 C 239.274 1089.944, 236.111 1083.736, 235.460 1078.527 C 234.856 1073.689, 236.324 1054.521, 237.683 1049.500 C 238.597 1046.127, 235.980 1049.302, 232.558 1055.719 C 230.876 1058.873, 228.150 1062.364, 226.500 1063.477 C 223.500 1065.500, 223.500 1065.500, 223.157 1126.654 C 222.927 1167.693, 223.195 1192.034, 223.973 1200.654 C 225.347 1215.874, 228.270 1233.189, 230.241 1237.788 C 231.622 1241.007, 231.712 1240.737, 234.576 1224.890 C 236.184 1215.988, 238.040 1207.984, 238.700 1207.103 C 239.796 1205.640, 240.181 1205.657, 243.113 1207.297 C 247.015 1209.480, 247.257 1209.194, 249.721 1199.500 C 251.225 1193.584, 251.500 1188.009, 251.500 1163.500 C 251.500 1134.500, 251.500 1134.500, 255.571 1132.605 C 259.493 1130.781, 259.685 1130.468, 260.793 1124.105 C 261.425 1120.472, 263.328 1113.900, 265.021 1109.500 C 269.030 1099.078, 278.775 1079.432, 280.747 1077.795 C 282.075 1076.693, 282.193 1076.816, 281.600 1078.685 C 281.221 1079.878, 280.780 1083.474, 280.619 1086.677 C 280.459 1089.880, 279.273 1096.711, 277.985 1101.857 C 276.050 1109.585, 275.842 1111.744, 276.790 1114.254 C 278.217 1118.035, 277.779 1118.763, 273.611 1119.545 C 270.292 1120.168, 270.292 1120.168, 269.679 1140.834 C 269.341 1152.200, 268.125 1169.825, 266.976 1180 C 264.286 1203.834, 263.300 1239.385, 264.963 1252.656 C 266.416 1264.259, 267.032 1265.870, 269.075 1263.412 C 270.094 1262.186, 270.642 1257.765, 271 1247.881 C 271.400 1236.826, 271.831 1233.734, 273.154 1232.413 C 274.064 1231.506, 275.225 1231.021, 275.735 1231.336 C 279.954 1233.944, 283.194 1285.907, 279.823 1296.892 C 278.573 1300.964, 278.670 1301.875, 281.155 1309.392 C 288.590 1331.883, 293.199 1372.696, 290.107 1388.662 C 289.359 1392.521, 289.793 1393.828, 296.083 1406.662 C 304.924 1424.703, 310.873 1441.060, 321.482 1476.500 C 334.947 1521.481, 340.815 1538.721, 344.422 1543.897 C 346.186 1546.429, 348.470 1550.525, 349.499 1553 C 351.999 1559.020, 352.615 1559.589, 353.943 1557.107 C 355.683 1553.856, 359.597 1554.430, 363.435 1558.500 C 365.804 1561.012, 367.596 1562, 369.783 1562 C 372.829 1562, 372.829 1562, 373.538 1569.562 C 373.928 1573.721, 374.005 1578.926, 373.710 1581.127 C 373.058 1585.986, 374.187 1586.656, 379.376 1584.487 C 381.450 1583.621, 383.901 1583.178, 384.823 1583.503 C 387.364 1584.398, 393 1591.921, 393 1594.417 C 393 1595.627, 393.661 1597.491, 394.468 1598.559 C 396.428 1601.150, 396.361 1602, 394.196 1602 C 389.893 1602, 381.773 1596.591, 375.356 1589.448 C 368.747 1582.094, 368.747 1582.094, 366.314 1585.679 C 363.882 1589.263, 363.882 1589.263, 368.562 1596.302 C 371.136 1600.173, 377.350 1607.602, 382.371 1612.812 C 392.400 1623.218, 426.402 1654, 427.867 1654 C 429.251 1654, 430 1651.338, 430 1646.418 C 430 1643.988, 430.453 1642, 431.008 1642 C 432.063 1642, 424.241 1625.866, 414.524 1608 C 411.383 1602.225, 405.097 1592.536, 400.555 1586.468 C 393.362 1576.859, 392.234 1574.795, 391.811 1570.468 C 391.455 1566.814, 388.816 1560.461, 381.834 1546.444 C 372.916 1528.542, 368.993 1517.793, 369.006 1511.294 C 369.013 1507.712, 370.866 1501, 371.848 1501 C 372.711 1501, 375.405 1506.304, 381.679 1520.360 C 387.456 1533.303, 392.075 1540.379, 396.950 1543.751 C 399.136 1545.263, 400.941 1546.769, 400.962 1547.098 C 400.983 1547.427, 399.200 1548.508, 397 1549.500 C 394.800 1550.492, 393 1551.473, 393 1551.680 C 393 1551.887, 397.040 1556.867, 401.977 1562.746 C 415.548 1578.906, 419.986 1588.664, 417.930 1597.818 C 416.806 1602.821, 417.690 1605.259, 419.389 1601.838 C 420.665 1599.268, 424.902 1598.051, 425.160 1600.180 C 425.249 1600.906, 425.361 1604.875, 425.410 1609 C 425.483 1615.061, 425.957 1617.235, 427.882 1620.332 C 429.696 1623.250, 430.745 1624.038, 432.280 1623.637 C 438.206 1622.087, 455.379 1637.593, 458.714 1647.505 C 459.294 1649.229, 459.371 1651.468, 458.895 1652.755 C 458.008 1655.154, 458.863 1655.551, 463.923 1655.091 C 470.641 1654.479, 472.969 1657.050, 474.093 1666.320 C 474.543 1670.035, 475.844 1673.832, 477.689 1676.820 C 480.447 1681.285, 483.350 1683.858, 497.924 1694.760 C 505.821 1700.667, 510.464 1707.209, 512.118 1714.758 C 513.881 1722.805, 516.685 1724.126, 522.182 1719.500 C 523.816 1718.125, 526.019 1717, 527.077 1717 C 528.135 1717, 529 1716.737, 529 1716.415 C 529 1716.092, 526.765 1711.480, 524.033 1706.165 C 518.847 1696.075, 514.529 1690.836, 507.297 1685.860 C 503.339 1683.137, 501.755 1679.888, 503.776 1678.638 C 504.203 1678.374, 506.419 1678.657, 508.701 1679.266 C 511.364 1679.977, 513.553 1680.038, 514.814 1679.436 C 518.246 1677.801, 515.758 1674.507, 508.023 1670.443 C 504.114 1668.388, 500.082 1665.648, 499.064 1664.354 C 496.773 1661.442, 496.383 1661.428, 495.651 1664.228 C 494.812 1667.435, 497.396 1670.971, 500.068 1670.272 C 501.758 1669.830, 502.126 1670.105, 501.839 1671.596 C 500.845 1676.759, 494.182 1673.020, 488.071 1663.869 C 483.755 1657.405, 482.780 1652.258, 485.452 1650.040 C 487.545 1648.303, 490.493 1649.585, 494.125 1653.810 C 497.296 1657.500, 497.296 1657.500, 495.306 1654.186 C 491.309 1647.529, 485.498 1641.628, 471.440 1629.950 C 451.360 1613.270, 445.672 1605.015, 444.328 1590.604 C 443.759 1584.500, 443.759 1584.500, 449.129 1584.123 C 460.903 1583.296, 462.609 1583.969, 461.492 1589 C 461.187 1590.375, 460.714 1593.300, 460.441 1595.500 C 459.944 1599.500, 459.944 1599.500, 466.722 1602.747 C 470.793 1604.697, 476.840 1608.981, 481.865 1613.474 C 486.466 1617.588, 491.693 1621.483, 493.481 1622.129 C 496.536 1623.234, 496.725 1623.583, 496.616 1627.902 C 496.489 1632.946, 495.747 1633.933, 492 1634.042 C 490.018 1634.100, 490.561 1634.598, 494.622 1636.444 C 501.629 1639.631, 506.018 1643.814, 522.649 1663.154 C 530.525 1672.314, 538.664 1681.106, 540.735 1682.692 C 542.806 1684.278, 548.325 1687.443, 553 1689.725 C 564.432 1695.306, 572.703 1702.396, 586.387 1718.347 C 598.950 1732.991, 603.378 1736.967, 610.670 1740.151 C 613.327 1741.310, 615.644 1742.382, 615.820 1742.533 C 615.996 1742.683, 615.227 1744.594, 614.113 1746.779 C 612.086 1750.752, 612.086 1750.752, 615.452 1751.299 C 617.303 1751.599, 622.337 1753.905, 626.638 1756.422 C 630.939 1758.940, 635.454 1761, 636.670 1761 C 640.171 1761, 640.345 1762.770, 637.012 1764.494 C 633.959 1766.073, 633.959 1766.073, 650.487 1777.286 C 679.015 1796.641, 684.885 1799.488, 698.702 1800.669 C 705.770 1801.274, 705.916 1801.343, 706.575 1804.393 C 707.712 1809.655, 711.690 1816.521, 715.583 1819.939 C 720.845 1824.558, 726.431 1826.699, 743.272 1830.549 C 751.397 1832.407, 760.026 1834.803, 762.448 1835.874 C 767.735 1838.213, 775.344 1845.002, 776.907 1848.775 C 777.958 1851.312, 778.466 1851.507, 784.268 1851.598 C 787.695 1851.651, 793.214 1852.042, 796.532 1852.467 C 802.183 1853.189, 802.766 1853.067, 805.780 1850.532 C 808.555 1848.197, 809.082 1848.050, 809.624 1849.462 C 809.969 1850.362, 812.809 1852.389, 815.936 1853.968 C 823.087 1857.578, 824.327 1859.075, 823.812 1863.486 C 823.402 1867, 823.402 1867, 832.150 1867 C 844.167 1867, 858.907 1869.035, 897.500 1876.022 C 936.765 1883.130, 953.643 1885.577, 972.649 1886.915 C 986.011 1887.855, 1003.239 1887.190, 1011.876 1885.399 C 1014.423 1884.871, 1015.467 1885.083, 1016.127 1886.262 C 1016.608 1887.121, 1018.784 1888.126, 1020.963 1888.494 C 1023.142 1888.862, 1026.814 1890.531, 1029.122 1892.203 C 1033.319 1895.244, 1033.319 1895.244, 1037.659 1893.135 C 1040.047 1891.975, 1042 1890.620, 1042 1890.124 C 1042 1889.628, 1040.313 1888.908, 1038.250 1888.523 C 1029.842 1886.955, 1008 1879.109, 1008 1877.657 C 1008 1877.069, 1027.612 1877.638, 1035.757 1878.462 C 1043.107 1879.206, 1044.239 1879.094, 1046.065 1877.441 C 1048.607 1875.141, 1051.050 1876.349, 1052.460 1880.604 C 1052.988 1882.197, 1053.508 1883.645, 1053.616 1883.823 C 1053.725 1884.001, 1058.693 1883.454, 1064.657 1882.608 C 1070.620 1881.761, 1079.325 1880.762, 1084 1880.387 C 1088.675 1880.012, 1094.455 1878.870, 1096.845 1877.848 C 1101.112 1876.023, 1101.270 1876.026, 1105.722 1877.995 C 1109.610 1879.715, 1112.332 1879.992, 1124.877 1879.941 C 1137.419 1879.890, 1140.354 1879.565, 1145.500 1877.662 C 1149.985 1876.002, 1151.426 1875.007, 1151.206 1873.721 C 1151.045 1872.774, 1151.382 1872, 1151.956 1872 C 1152.530 1872, 1153 1871.580, 1153 1871.067 C 1153 1869.243, 1149.341 1869.021, 1143.663 1870.500 C 1135.914 1872.518, 1135.748 1872.484, 1136.421 1869 C 1138.409 1858.704, 1137.518 1859.725, 1144.105 1860.201 C 1148.867 1860.546, 1150.565 1861.167, 1152.928 1863.431 C 1154.538 1864.973, 1156.354 1867.440, 1156.964 1868.912 C 1157.905 1871.184, 1158.568 1871.532, 1161.342 1871.208 C 1163.483 1870.958, 1165.066 1871.374, 1165.928 1872.413 C 1167.577 1874.400, 1170.605 1874.473, 1171.345 1872.544 C 1171.652 1871.743, 1174.063 1869.931, 1176.702 1868.518 C 1180.701 1866.377, 1181 1866.040, 1178.500 1866.493 C 1166.991 1868.578, 1163.798 1868.826, 1160.999 1867.850 C 1155.949 1866.089, 1157.455 1864.366, 1166.077 1862.040 C 1190.277 1855.510, 1215.976 1852.412, 1224.845 1854.956 C 1227.674 1855.767, 1228.743 1855.537, 1231.921 1853.434 C 1243.595 1845.708, 1277.593 1835.125, 1299.263 1832.472 C 1302.433 1832.084, 1305.272 1831.369, 1305.572 1830.883 C 1306.323 1829.668, 1313.737 1829.765, 1314.500 1831 C 1315.906 1833.276, 1320.543 1831.651, 1329.484 1825.750 C 1336.390 1821.191, 1338.959 1818.933, 1338.976 1817.405 C 1338.989 1816.253, 1339.787 1814.603, 1340.750 1813.739 C 1342.467 1812.198, 1353.073 1808.968, 1358 1808.485 C 1359.375 1808.350, 1365.399 1805.915, 1371.387 1803.075 C 1377.376 1800.234, 1394.026 1792.929, 1408.387 1786.841 C 1443.945 1771.769, 1459.008 1764.355, 1468.732 1757.142 C 1475.571 1752.069, 1489.299 1742.664, 1495.945 1738.500 C 1496.823 1737.950, 1498.975 1736.471, 1500.727 1735.213 C 1502.479 1733.956, 1505.957 1732.022, 1508.456 1730.916 C 1512.090 1729.309, 1513 1728.409, 1513 1726.421 C 1513 1718.175, 1519.834 1711.821, 1539.569 1701.717 C 1547.857 1697.473, 1556.467 1692.436, 1558.702 1690.523 C 1563.384 1686.516, 1566.167 1680.457, 1565.844 1674.976 C 1565.532 1669.691, 1567.434 1667.658, 1571.944 1668.456 C 1581.387 1670.128, 1580.944 1670.376, 1586.462 1660.311 C 1589.233 1655.257, 1595.100 1646.570, 1599.500 1641.007 C 1609.368 1628.529, 1612.816 1622.028, 1613.628 1614.367 C 1614.250 1608.500, 1614.250 1608.500, 1622.076 1604.750 C 1627.706 1602.052, 1631.814 1599.105, 1636.711 1594.250 C 1645.548 1585.490, 1649.927 1579.210, 1666.174 1552 C 1682.284 1525.018, 1687.884 1517.146, 1696.923 1508.777 C 1702.825 1503.313, 1704.261 1501.265, 1707.304 1493.968 C 1709.246 1489.311, 1711.992 1482.912, 1713.405 1479.750 C 1714.818 1476.588, 1715.788 1474, 1715.560 1474 C 1715.332 1474, 1713.460 1476.813, 1711.400 1480.250 C 1696.883 1504.482, 1678.357 1528.878, 1642.267 1571.285 C 1624.152 1592.571, 1607.851 1612.664, 1602.507 1620.294 C 1601.022 1622.413, 1601.015 1622.414, 1592.546 1620.653 C 1583.687 1618.812, 1580 1619.365, 1580 1622.535 C 1580 1624.303, 1585.133 1624.534, 1588.179 1622.904 C 1590.216 1621.814, 1590.217 1621.824, 1588.363 1625.020 C 1585.270 1630.353, 1574.184 1641.750, 1565.593 1648.429 C 1561.142 1651.890, 1549.175 1660.460, 1539 1667.473 C 1516.967 1682.660, 1515.629 1683.724, 1500.003 1698.497 C 1489.992 1707.962, 1487.435 1709.896, 1485.561 1709.426 C 1482.041 1708.542, 1477.301 1711.016, 1460.563 1722.473 C 1440.475 1736.222, 1433.680 1739.457, 1424.836 1739.482 C 1412.946 1739.514, 1413.704 1738.588, 1434.899 1727.178 C 1449.278 1719.436, 1454.905 1714.951, 1458.165 1708.632 C 1460.161 1704.764, 1460.161 1704.764, 1463.474 1707.975 C 1466.787 1711.186, 1466.787 1711.186, 1471.090 1706.343 C 1488.664 1686.561, 1502.726 1677.595, 1512.965 1679.643 C 1516.878 1680.426, 1516.903 1678.779, 1513 1677.306 C 1511.058 1676.573, 1510 1675.475, 1510 1674.194 C 1510 1671.746, 1511.823 1671.002, 1517.832 1670.994 C 1520.399 1670.991, 1524.174 1670.524, 1526.219 1669.956 C 1530.934 1668.646, 1536.090 1664.398, 1535.339 1662.441 C 1534.377 1659.934, 1539.736 1650.578, 1546.130 1643.600 C 1552.872 1636.241, 1556.341 1634, 1560.985 1634 C 1564.069 1634, 1564.069 1634, 1563.441 1629.250 C 1562.643 1623.220, 1565.126 1619.570, 1570.732 1618.531 C 1580.948 1616.636, 1587.694 1610.152, 1596.107 1594.139 C 1603.027 1580.970, 1609.046 1575.030, 1618.500 1572.043 C 1622.181 1570.880, 1625 1568.651, 1625 1566.903 C 1625 1566.511, 1623.425 1564.304, 1621.500 1562 C 1619.575 1559.696, 1618 1556.955, 1618 1555.908 C 1618 1554.333, 1616.752 1554.885, 1610.750 1559.117 C 1600.632 1566.250, 1594.631 1572.339, 1590.996 1579.158 C 1588.304 1584.209, 1587.493 1585, 1585 1585 C 1581.254 1585, 1580.682 1583.894, 1581.965 1579.130 C 1583.103 1574.903, 1582.527 1572, 1580.548 1572 C 1578.512 1572, 1576.281 1575.156, 1573.999 1581.266 C 1572.814 1584.437, 1570.715 1588.374, 1569.333 1590.016 C 1566.822 1593, 1566.822 1593, 1569.189 1593 C 1572.758 1593, 1576.202 1590.213, 1575.473 1587.915 C 1575.051 1586.584, 1575.343 1586, 1576.433 1586 C 1580.389 1586, 1577.140 1592.686, 1569.820 1599.609 C 1562.896 1606.157, 1560.607 1607.395, 1558 1606 C 1554.858 1604.318, 1555.624 1601.156, 1560.577 1595.358 C 1565.942 1589.078, 1565.352 1588.548, 1558.799 1593.761 C 1552.134 1599.061, 1548.728 1603.360, 1536.754 1621.584 C 1522.966 1642.565, 1516.942 1647.957, 1503.320 1651.505 C 1496.106 1653.384, 1494.916 1653.382, 1495.641 1651.494 C 1495.959 1650.665, 1495.431 1647.076, 1494.467 1643.517 C 1492.109 1634.804, 1492.981 1633.698, 1501.839 1634.162 C 1508.287 1634.500, 1508.287 1634.500, 1510.105 1629.183 C 1511.767 1624.325, 1513.368 1621.633, 1522.703 1608 C 1524.398 1605.525, 1526.342 1601.630, 1527.022 1599.344 C 1528.078 1595.801, 1528.720 1595.123, 1531.380 1594.747 C 1533.096 1594.504, 1535.245 1593.979, 1536.155 1593.582 C 1537.435 1593.023, 1537.963 1593.554, 1538.485 1595.929 C 1539.324 1599.753, 1540.574 1599.880, 1541.307 1596.216 C 1542.243 1591.537, 1549.229 1582.208, 1563.562 1566.500 C 1581.116 1547.262, 1585.329 1541.543, 1588.058 1533.251 C 1592.801 1518.840, 1598.543 1510.077, 1614.437 1493 C 1625.670 1480.930, 1631.695 1472.327, 1632.555 1467.130 C 1633.612 1460.744, 1633.599 1460.755, 1637.730 1462.863 C 1641.500 1464.786, 1641.500 1464.786, 1641.168 1460.628 C 1640.921 1457.534, 1641.753 1454.385, 1644.418 1448.323 C 1646.388 1443.842, 1648.007 1439.574, 1648.015 1438.838 C 1648.024 1438.102, 1648.428 1436.872, 1648.914 1436.104 C 1649.595 1435.029, 1650.171 1435.431, 1651.427 1437.859 C 1653.056 1441.009, 1653.056 1441.009, 1665.041 1417.254 C 1671.633 1404.189, 1677.696 1390.818, 1678.513 1387.540 C 1679.331 1384.262, 1680 1377.696, 1680 1372.948 C 1680 1364.317, 1680 1364.317, 1683.839 1363.166 C 1692.037 1360.710, 1699.392 1352.914, 1702.077 1343.834 C 1702.620 1342, 1703.748 1333.975, 1704.585 1326 C 1705.422 1318.025, 1706.574 1309.700, 1707.145 1307.500 C 1708.771 1301.232, 1713.048 1294.130, 1717.155 1290.877 C 1720.477 1288.246, 1720.802 1287.609, 1719.956 1285.384 C 1719.420 1283.976, 1719.284 1279.157, 1719.645 1274.452 C 1720.292 1266.037, 1720.292 1266.037, 1716.686 1262.734 C 1713.294 1259.627, 1713.192 1259.361, 1714.974 1258.248 C 1716.016 1257.597, 1717.856 1254.358, 1719.063 1251.049 C 1721.664 1243.915, 1722.974 1242.622, 1727.004 1243.214 C 1729.411 1243.567, 1729.926 1243.336, 1729.535 1242.079 C 1726.522 1232.389, 1726.360 1210.153, 1728.992 1167.500 C 1732.407 1112.174, 1731.470 1078.994, 1725.937 1059.274 C 1724.282 1053.376, 1724.038 1051.170, 1724.889 1049.806 C 1725.500 1048.827, 1726 1046.475, 1726 1044.579 C 1726 1040.324, 1727.520 1036.154, 1730.061 1033.441 C 1731.975 1031.397, 1731.964 1031.358, 1728.556 1028.054 C 1725.472 1025.065, 1724.683 1024.780, 1720.811 1025.253 C 1718.440 1025.542, 1715.716 1026.101, 1714.758 1026.494 C 1713.154 1027.151, 1713.124 1026.940, 1714.378 1023.854 C 1715.128 1022.009, 1716.267 1016.281, 1716.910 1011.124 C 1717.553 1005.967, 1718.748 1000.454, 1719.565 998.874 C 1720.761 996.562, 1720.792 996, 1719.722 996 C 1717.019 996, 1712.023 989.208, 1707.081 978.813 C 1704.287 972.936, 1702 967.221, 1702 966.113 C 1702 965.005, 1703.515 959.914, 1705.366 954.800 C 1709.617 943.056, 1710.545 939, 1708.984 939 C 1705.699 939, 1701.967 934.557, 1698.852 926.938 C 1695.587 918.952, 1693.622 916.019, 1690.265 914.116 C 1688.580 913.161, 1688.581 913.056, 1690.282 911.798 C 1691.807 910.670, 1691.900 910.012, 1690.930 907.228 C 1689.505 903.140, 1690.133 901.498, 1694.028 899.129 C 1697.122 897.247, 1697.122 897.247, 1694.502 896.590 C 1690.418 895.565, 1683.449 888.472, 1681.053 882.902 C 1679.858 880.124, 1676.875 870.122, 1674.423 860.675 C 1669.548 841.885, 1665.162 831.398, 1659.607 825.250 C 1657.623 823.054, 1656 820.975, 1656 820.629 C 1656 819.330, 1661.920 820.062, 1663.402 821.545 C 1664.252 822.395, 1665.455 824.974, 1666.075 827.278 C 1667.859 833.906, 1670.138 839.033, 1671.048 838.470 C 1672.612 837.504, 1673.231 829.231, 1672.015 825.546 C 1671.361 823.564, 1669.320 819.704, 1667.479 816.969 C 1664.132 811.995, 1664.132 811.995, 1666.730 812.647 C 1668.986 813.213, 1669.232 813.048, 1668.594 811.400 C 1667.012 807.307, 1666.798 803.949, 1668.024 802.471 C 1669.077 801.202, 1668.970 800.691, 1667.398 799.509 C 1662.696 795.970, 1656.722 795.954, 1655.371 799.476 C 1655.049 800.314, 1654.384 801, 1653.893 801 C 1652.198 801, 1653.008 797.679, 1655.500 794.411 C 1659.466 789.212, 1658.440 784, 1653.452 784 C 1651.916 784, 1650.794 785.131, 1649.513 787.970 C 1648.529 790.154, 1646.950 792.641, 1646.005 793.496 C 1644.407 794.942, 1644.206 794.651, 1643.143 789.359 C 1642.514 786.228, 1642 782.461, 1642 780.988 C 1642 778.073, 1644.704 775, 1647.270 775 C 1649.853 775, 1650.119 773.417, 1647.876 771.387 C 1646.195 769.867, 1644.444 769.548, 1638.713 769.722 C 1634.737 769.842, 1631.051 769.457, 1630.314 768.846 C 1628.690 767.498, 1628.624 763.920, 1630.161 760.547 C 1631.593 757.403, 1633.374 757.305, 1635.545 760.250 C 1637.166 762.450, 1637.188 762.411, 1636.557 758.500 C 1635.483 751.838, 1630.433 742.796, 1622.971 734.175 C 1615.895 726, 1615.895 726, 1619.135 726 C 1622.374 726, 1622.374 726, 1619.687 723.195 C 1616.988 720.378, 1616.094 717, 1618.047 717 C 1618.623 717, 1617.753 715.313, 1616.113 713.250 C 1614.474 711.188, 1611.348 706.350, 1609.166 702.500 C 1606.985 698.650, 1604.592 695.588, 1603.850 695.696 C 1603.095 695.806, 1600.021 691.621, 1596.874 686.196 C 1587.002 669.184, 1576.134 655.495, 1549.474 626.500 C 1532.386 607.914, 1520.671 593.863, 1512.581 582.250 C 1506.967 574.192, 1506.738 574, 1502.732 574 C 1494.034 574, 1487.672 568.874, 1478.265 554.285 C 1473.862 547.458, 1472.512 546.242, 1460.500 538.280 C 1453.350 533.541, 1446.155 529.384, 1444.510 529.043 C 1442.809 528.690, 1441.028 527.434, 1440.377 526.129 C 1438.384 522.132, 1425.261 514.161, 1399.505 501.302 C 1385.757 494.439, 1374.263 488.426, 1373.962 487.939 C 1373.661 487.452, 1367.359 484.164, 1359.958 480.632 C 1309.379 456.499, 1246.750 435.171, 1180.500 419.519 C 1151.791 412.736, 1153.026 413.096, 1153.573 411.670 C 1153.842 410.968, 1155.511 409.530, 1157.281 408.473 C 1161.726 405.820, 1172.640 406.162, 1185.496 409.357 C 1190.994 410.723, 1195.624 411.710, 1195.784 411.549 C 1195.945 411.389, 1193.810 409.803, 1191.041 408.026 C 1185.225 404.294, 1181 399.656, 1181 397.003 C 1181 395.056, 1179.687 394.620, 1170.415 393.482 C 1165.330 392.858, 1165.330 392.858, 1164.383 396.179 C 1163.655 398.734, 1162.821 399.572, 1160.768 399.812 C 1157.210 400.227, 1154.157 398.474, 1153.436 395.601 C 1152.920 393.545, 1152.064 393.180, 1146.395 392.599 C 1142.846 392.236, 1138.605 391.671, 1136.971 391.344 C 1133.326 390.615, 1132.767 393.144, 1136.231 394.690 C 1138.268 395.599, 1138.008 395.837, 1133.243 397.419 C 1126.656 399.607, 1126.013 400.670, 1130.179 402.479 C 1135.094 404.614, 1130.949 404.417, 1121.817 402.081 C 1112.101 399.596, 1102.504 395.206, 1094.393 389.536 C 1089.449 386.080, 1086.995 385, 1084.086 385 C 1080.330 385, 1080.233 385.097, 1078.083 390.994 C 1076.359 395.721, 1075.357 397.123, 1073.339 397.630 C 1069.078 398.699, 1058.094 397.193, 1047 394.019 C 1028.663 388.772, 1019.592 388.776, 1013.966 394.032 C 1012.218 395.664, 1010.611 397, 1010.394 397 C 1010.177 397, 1010 395.615, 1010 393.923 C 1010 390.390, 1005.279 384.950, 1002.327 385.081 C 1001.322 385.125, 998.823 385.946, 996.772 386.903 M 1101 389.527 C 1101 389.830, 1104.250 391.636, 1108.222 393.539 C 1113.758 396.192, 1116.727 397, 1120.944 397 C 1126.243 397, 1126.362 396.942, 1124.189 395.420 C 1120.559 392.877, 1101 387.907, 1101 389.527 M 639.871 469.954 C 637.324 470.924, 634.187 472.456, 632.898 473.359 C 630.743 474.868, 630.714 475, 632.527 475.006 C 633.612 475.010, 635.804 475.693, 637.399 476.524 C 638.993 477.355, 640.457 477.876, 640.652 477.682 C 641.584 476.750, 645.651 468.012, 645.114 468.095 C 644.776 468.148, 642.417 468.984, 639.871 469.954 M 909.500 761.666 C 837.916 764.476, 759.618 774.699, 733.201 784.684 C 727.391 786.880, 725.477 789.650, 721.984 800.912 C 715.749 821.016, 714.635 828.016, 714.565 847.541 C 714.476 872.382, 712.796 870.537, 736.174 871.281 C 764.017 872.166, 785.782 876.633, 798.500 884.072 C 810.585 891.140, 812.367 894.716, 815.410 918.013 C 819.423 948.742, 820.318 999.720, 819.070 1126.500 C 818.044 1230.826, 817.642 1241.019, 813.554 1266.349 C 804.888 1320.051, 786.495 1353.341, 757.672 1367.494 C 743.588 1374.410, 738.287 1375.504, 719 1375.476 C 702.169 1375.452, 695.993 1374.626, 684 1370.796 C 660.493 1363.289, 641.051 1345.897, 630.911 1323.304 C 619.382 1297.616, 612.039 1250.007, 612.010 1200.750 C 612 1184, 612 1184, 606.250 1184.018 C 586.358 1184.082, 546.729 1194.061, 527.150 1203.937 C 515.694 1209.716, 515.643 1209.803, 512.115 1229.500 C 504.258 1273.363, 501.318 1313.011, 500.314 1388.623 C 499.797 1427.584, 499.982 1438.610, 501.507 1459.623 C 502.500 1473.306, 503.681 1485.513, 504.132 1486.750 C 504.917 1488.908, 505.428 1489, 516.597 1489 C 544.689 1489, 571.022 1481.585, 592.386 1467.660 C 597.161 1464.547, 601.499 1462, 602.025 1462 C 602.550 1462, 605.901 1464, 609.471 1466.444 C 619.824 1473.532, 645.025 1480.754, 673.052 1484.665 C 690.828 1487.145, 736.853 1487.182, 753 1484.729 C 830.317 1472.981, 887.795 1433.702, 918.803 1371.421 C 944.453 1319.904, 947.720 1291.228, 948.644 1109.500 C 948.912 1056.700, 948.732 980.425, 948.242 940 C 947.353 866.500, 947.353 866.500, 957.612 836 C 968.779 802.801, 972.874 786.592, 973.743 772.153 C 974.188 764.762, 974.012 762.621, 972.903 761.919 C 971.654 761.128, 927.674 760.953, 909.500 761.666 M 1435.500 761.666 C 1373.411 764.104, 1309.791 771.534, 1273.677 780.567 C 1258.461 784.372, 1254.763 785.906, 1252.510 789.345 C 1250.240 792.809, 1246.393 804.756, 1243.336 817.831 C 1240.915 828.187, 1240.602 831.530, 1240.554 847.541 C 1240.481 871.840, 1239.931 871, 1255.917 871 C 1278.442 871, 1301.936 874.563, 1315.953 880.104 C 1325.510 883.882, 1334.426 890.372, 1336.418 895 C 1341.550 906.921, 1344.207 936.486, 1345.495 996 C 1346.275 1032.030, 1344.297 1224.808, 1343.007 1238.500 C 1336.341 1309.263, 1317.108 1351.076, 1283.672 1367.494 C 1269.588 1374.410, 1264.287 1375.504, 1245 1375.476 C 1228.169 1375.452, 1221.993 1374.626, 1210 1370.796 C 1186.634 1363.334, 1167.058 1345.918, 1157.106 1323.737 C 1145.590 1298.068, 1139.593 1261.673, 1138.325 1209.750 C 1137.696 1184, 1137.696 1184, 1132.098 1184.018 C 1112.351 1184.083, 1072.654 1194.099, 1053.150 1203.937 C 1041.694 1209.716, 1041.643 1209.803, 1038.115 1229.500 C 1030.265 1273.326, 1027.302 1313.144, 1026.313 1388.099 C 1025.793 1427.539, 1025.976 1438.523, 1027.506 1459.599 C 1028.500 1473.294, 1029.681 1485.513, 1030.132 1486.750 C 1030.917 1488.908, 1031.428 1489, 1042.597 1489 C 1070.689 1489, 1097.022 1481.585, 1118.386 1467.660 C 1123.161 1464.547, 1127.499 1462, 1128.025 1462 C 1128.550 1462, 1131.901 1464, 1135.471 1466.444 C 1145.869 1473.562, 1171.043 1480.783, 1199 1484.666 C 1216.850 1487.145, 1262.861 1487.181, 1279 1484.729 C 1347.974 1474.249, 1401.514 1441.640, 1434.533 1390 C 1440.861 1380.104, 1452.042 1357.004, 1456.556 1344.500 C 1471.036 1304.390, 1473.822 1268.281, 1474.642 1110 C 1474.915 1057.475, 1474.733 981.200, 1474.239 940.500 C 1473.341 866.500, 1473.341 866.500, 1483.606 836 C 1494.776 802.810, 1498.874 786.599, 1499.743 772.153 C 1500.188 764.762, 1500.012 762.621, 1498.903 761.919 C 1497.654 761.128, 1453.674 760.953, 1435.500 761.666 M 0.456 1122.500 C 0.456 1144.500, 0.588 1153.358, 0.749 1142.183 C 0.910 1131.009, 0.910 1113.009, 0.749 1102.183 C 0.587 1091.358, 0.455 1100.500, 0.456 1122.500 M 114.711 1320.622 C 113.778 1321.556, 113.923 1326.964, 114.951 1329.500 C 115.646 1331.217, 115.857 1331.004, 116.443 1328 C 117.147 1324.386, 115.969 1319.365, 114.711 1320.622 M 437.003 1652.026 C 437.004 1652.287, 438.142 1656.775, 439.533 1662 C 442.389 1672.736, 446.608 1679.793, 453.916 1686.057 C 457.951 1689.517, 458.223 1689.988, 456.184 1689.994 C 453.061 1690.002, 450.913 1688.750, 442.257 1681.871 C 435.183 1676.249, 431.417 1674.361, 428.933 1675.189 C 427.218 1675.761, 445.851 1694.912, 455.822 1702.825 C 465.760 1710.713, 479.679 1720.387, 492 1727.970 C 500.500 1733.202, 500.500 1733.202, 483.041 1715.631 C 465.582 1698.060, 465.582 1698.060, 467.791 1690.551 C 470.358 1681.826, 470.564 1678.430, 468.573 1677.666 C 466.360 1676.817, 464.736 1679.609, 465.188 1683.486 C 465.414 1685.419, 465.444 1687, 465.256 1687 C 465.068 1687, 462.626 1684.862, 459.829 1682.250 C 453.737 1676.560, 447.926 1669.140, 441.643 1659.026 C 439.089 1654.915, 437.001 1651.765, 437.003 1652.026 M 517.500 1785.719 C 518.050 1786.235, 519.850 1787.655, 521.500 1788.875 C 532.437 1796.959, 541 1808.785, 541 1815.805 C 541 1819.018, 541.160 1819.179, 543.750 1818.567 C 545.263 1818.210, 548.324 1816.658, 550.554 1815.118 C 554.608 1812.318, 554.608 1812.318, 557.304 1816.069 C 560.229 1820.137, 560.715 1822.569, 558.750 1823.296 C 558.063 1823.550, 559.641 1824.698, 562.257 1825.847 C 568.121 1828.421, 576.308 1833.929, 590 1844.515 C 604.262 1855.540, 609.473 1858.992, 615.062 1861.115 C 618.083 1862.263, 621.635 1864.849, 624.825 1868.221 C 631.400 1875.174, 640.987 1880.754, 666.500 1892.476 C 696.791 1906.394, 711.307 1914.476, 723 1923.934 C 724.547 1925.185, 727.024 1925.971, 729.500 1925.995 C 736.594 1926.065, 746.840 1928.804, 757.799 1933.559 C 776.983 1941.883, 781.478 1943.170, 793.360 1943.743 C 804.219 1944.266, 804.219 1944.266, 803.487 1941.883 C 802.065 1937.252, 801.001 1936.724, 794.459 1937.394 C 790.777 1937.771, 787.050 1937.565, 785.068 1936.874 C 781.694 1935.698, 781.507 1934.841, 783.156 1928.093 C 783.390 1927.137, 779.008 1924.621, 769.500 1920.248 C 696.454 1886.660, 638.046 1857.218, 613.500 1841.613 C 603.378 1835.178, 579.894 1816.346, 565.185 1802.868 C 546.618 1785.855, 545.202 1784.708, 543.546 1785.344 C 542.555 1785.724, 542 1787.205, 542 1789.469 C 542 1792.268, 541.607 1793, 540.105 1793 C 537.400 1793, 525.220 1789.134, 520.500 1786.777 C 518.300 1785.679, 516.950 1785.202, 517.500 1785.719" stroke="none" fill="#fffcfc" fill-rule="evenodd"/><path d="" stroke="none" fill="#fcfcfc" fill-rule="evenodd"/></svg>